<?xml version="1.0" encoding="UTF-8"?>
<svg version="1.1" xmlns="http://www.w3.org/2000/svg" width="512" height="512">
<path d="M0 0 C1.05960937 0.15597656 2.11921875 0.31195313 3.2109375 0.47265625 C7.97261518 3.08024165 10.56667979 7.61356464 13.625 12 C14.92224129 13.8386097 16.22665099 15.67218802 17.5390625 17.5 C18.39298584 18.72203125 18.39298584 18.72203125 19.26416016 19.96875 C21.05646331 22.0660724 22.46455927 22.97832774 25 24 C25.65895264 23.51007568 26.31790527 23.02015137 26.99682617 22.51538086 C29.49229781 20.68533927 32.00771598 18.88809406 34.53979492 17.10913086 C36.15212475 15.96265422 37.73956089 14.78142228 39.32617188 13.59960938 C46.12764266 8.86174273 50.66803543 7.07332082 58.9440918 8.3371582 C59.9525415 8.555896 60.96099121 8.77463379 62 9 C62.87116455 9.1858667 63.7423291 9.3717334 64.63989258 9.56323242 C67.06856708 10.16074996 69.43117593 10.86129006 71.8125 11.625 C72.66360352 11.89151367 73.51470703 12.15802734 74.39160156 12.43261719 C93.37843683 18.54389388 109.99062784 27.79081733 125 41 C125.82757813 41.71800781 126.65515625 42.43601563 127.5078125 43.17578125 C137.5558255 52.0426015 146.75296867 61.43098898 155 72 C155.91845703 73.15242188 155.91845703 73.15242188 156.85546875 74.328125 C161.81343805 80.68751555 162.07693018 84.80134948 161.68359375 92.8671875 C159.9632981 112.65587414 159.9632981 112.65587414 166.4375 130.3671875 C170.06291742 133.48564531 174.10479751 135.65727715 178.41455078 137.69287109 C182.92024587 139.97082119 186.83558691 143.05677368 190.875 146.0625 C191.629021 146.58875977 192.38304199 147.11501953 193.15991211 147.65722656 C193.86768799 148.15319336 194.57546387 148.64916016 195.3046875 149.16015625 C195.92327637 149.58949463 196.54186523 150.01883301 197.17919922 150.46118164 C202.24586991 154.74319094 203.50814542 158.15227746 204.0799408 164.59965515 C204.15128738 165.61018448 204.22263397 166.62071381 204.29614258 167.66186523 C204.38611511 168.73560394 204.47608765 169.80934265 204.56878662 170.9156189 C204.86141023 174.46211196 205.1283514 178.01002573 205.39453125 181.55859375 C205.59164498 184.02582923 205.79012508 186.4929559 205.98991394 188.9599762 C206.40487806 194.12983063 206.80798812 199.30042377 207.2019043 204.47192383 C207.70696076 211.09888303 208.23400849 217.72384652 208.76901722 224.34846401 C209.17925907 229.44289875 209.58151986 234.53793689 209.98099327 239.63322639 C210.1727794 242.07617859 210.36618127 244.51900449 210.5612278 246.96169853 C210.83197746 250.37684743 211.0928757 253.79260408 211.35083008 257.20874023 C211.43229782 258.21724533 211.51376556 259.22575043 211.59770203 260.26481628 C212.19115025 268.35659487 211.78854789 273.65268778 206.75 280.25 C205.84342278 281.47501833 204.93719078 282.70029218 204.03125 283.92578125 C203.54398437 284.57756348 203.05671875 285.2293457 202.5546875 285.90087891 C200.89679307 288.13934881 199.27351093 290.39998389 197.65625 292.66796875 C197.09067383 293.45977539 196.52509766 294.25158203 195.94238281 295.06738281 C194.84165848 296.608905 193.74199129 298.15118276 192.64355469 299.69433594 C191.61071805 301.13051364 190.56354835 302.55650538 189.50146484 303.97119141 C187.9911442 305.96084553 187.9911442 305.96084553 186.73681641 307.99365234 C183.76211777 312.24846036 181.12225278 313.55427934 176.0546875 314.671875 C173.66660593 315.06400082 171.27264465 315.421372 168.875 315.75 C167.58239258 315.94698486 166.28978516 316.14396973 164.95800781 316.34692383 C160.97770697 316.94522739 156.99080133 317.4762636 153 318 C151.2998877 318.23178955 151.2998877 318.23178955 149.56542969 318.46826172 C127.82016838 321.36307114 105.89895957 322.10284492 84 323 C83.5467334 324.16345947 83.0934668 325.32691895 82.62646484 326.52563477 C80.91620314 330.9150585 79.20505045 335.30413446 77.49365234 339.69311523 C76.75838986 341.57909078 76.02335695 343.46515585 75.28857422 345.35131836 C74.57473922 347.1836247 73.86048778 349.01576885 73.14581299 350.8477478 C72.44050298 352.65691977 71.73668036 354.46667233 71.03436279 356.27700806 C69.43907182 360.37714943 67.82104675 364.46101056 66.10253906 368.51123047 C65.81561188 369.19563705 65.52868469 369.88004364 65.23306274 370.58518982 C64.47233659 372.38915422 63.69696945 374.1869254 62.92041016 375.98413086 C61.90938383 379.29691818 61.87585579 380.7594318 63 384 C64.27555327 386.45325108 64.27555327 386.45325108 65.90625 388.87109375 C66.48503906 389.77537109 67.06382812 390.67964844 67.66015625 391.61132812 C68.88493326 393.49270002 70.11149166 395.37291346 71.33984375 397.25195312 C71.91863281 398.15751953 72.49742187 399.06308594 73.09375 399.99609375 C73.89329102 401.22090454 73.89329102 401.22090454 74.70898438 402.47045898 C76.19187546 405.37594963 76.74437068 407.75364576 77 411 C74.24879161 416.37175253 69.90822747 420.49162481 65.6875 424.75 C65.04876953 425.42160156 64.41003906 426.09320313 63.75195312 426.78515625 C59.82078915 430.76013259 56.78276347 433.4450565 51 434 C47.8194244 433.29917597 44.96745065 432.07437819 42 430.75 C41.14929932 430.3888208 40.29859863 430.0276416 39.42211914 429.65551758 C37.58616161 428.87228418 35.75432263 428.07934091 33.92626953 427.27783203 C30.85657906 425.9373715 27.77213647 424.63622825 24.68359375 423.33984375 C22.60096253 422.4571434 20.51891852 421.57305614 18.4375 420.6875 C17.44427734 420.26758789 16.45105469 419.84767578 15.42773438 419.41503906 C14.50154297 419.01381836 13.57535156 418.61259766 12.62109375 418.19921875 C11.8005249 417.84690186 10.97995605 417.49458496 10.13452148 417.1315918 C6.91294787 415.42371193 5.34756447 413.98552252 4.11669922 410.49539185 C2.47272811 403.44096519 1.1769427 396.40721275 0.125 389.2421875 C-0.22276798 387.04778063 -0.5731062 384.85377982 -0.92578125 382.66015625 C-1.47046608 379.26189265 -2.00152072 375.86438829 -2.48974609 372.45751953 C-4.24582622 357.05315448 -4.24582622 357.05315448 -12.57421875 344.65625 C-14.34971644 343.38977028 -16.15565489 342.16393902 -18 341 C-19.29168586 339.89900499 -20.56762075 338.77865421 -21.8125 337.625 C-24.29393726 335.46523053 -26.7896108 333.32245262 -29.2890625 331.18359375 C-29.88871826 330.67038574 -30.48837402 330.15717773 -31.10620117 329.62841797 C-32.28257649 328.62251592 -33.45975512 327.61755213 -34.63793945 326.61376953 C-35.19956787 326.13407715 -35.76119629 325.65438477 -36.33984375 325.16015625 C-36.93434326 324.66692871 -37.52884277 324.17370117 -38.14135742 323.66552734 C-40 322 -40 322 -41.8371582 319.90087891 C-48.25061655 313.01742548 -55.00429025 312.6829599 -63.89019775 312.34408569 C-68.03935561 312.18292645 -72.18064322 311.89397898 -76.32421875 311.62890625 C-77.15312622 311.57950394 -77.98203369 311.53010162 -78.83605957 311.47920227 C-99.89273885 310.19548367 -120.54730968 306.01359204 -141 301 C-141.94311035 300.77135254 -142.8862207 300.54270508 -143.85791016 300.30712891 C-146.39041454 299.68399048 -148.91493752 299.03711388 -151.4375 298.375 C-152.1588916 298.19332275 -152.8802832 298.01164551 -153.62353516 297.82446289 C-157.85761207 296.6564952 -160.18519773 295.34563706 -163 292 C-164.00488281 289.48217773 -164.00488281 289.48217773 -164.703125 286.68359375 C-164.9609375 285.67232422 -165.21875 284.66105469 -165.484375 283.61914062 C-165.86335938 282.04422852 -165.86335938 282.04422852 -166.25 280.4375 C-166.518125 279.38369141 -166.78625 278.32988281 -167.0625 277.24414062 C-169 269.49908323 -169 269.49908323 -169 266 C-170.155 265.649375 -171.31 265.29875 -172.5 264.9375 C-179.877555 262.45919226 -186.94139695 259.25793374 -194 256 C-194.75716309 255.6508252 -195.51432617 255.30165039 -196.29443359 254.94189453 C-252.17507076 228.83630606 -252.17507076 228.83630606 -258.82788086 211.89135742 C-259.03807861 211.13701416 -259.24827637 210.3826709 -259.46484375 209.60546875 C-259.70557617 208.7446167 -259.94630859 207.88376465 -260.19433594 206.99682617 C-260.43958008 206.06974854 -260.68482422 205.1426709 -260.9375 204.1875 C-261.32663574 202.72630737 -261.32663574 202.72630737 -261.72363281 201.2355957 C-267.89470489 177.36761712 -270.76954551 152.65294022 -270 128 C-270.00515625 126.85402344 -270.0103125 125.70804688 -270.015625 124.52734375 C-269.81439589 115.92479911 -267.20696211 110.74790061 -262 104 C-261.04673828 102.73542969 -261.04673828 102.73542969 -260.07421875 101.4453125 C-250.20417177 88.74677511 -239.35005645 77.20695528 -225.98852539 68.20751953 C-217.52888432 62.47127504 -212.56994653 58.27978614 -210 48 C-209.43187388 46.17588204 -208.82907311 44.36209927 -208.1875 42.5625 C-207.95417969 41.80066406 -207.72085938 41.03882813 -207.48046875 40.25390625 C-202.80167983 33.13078961 -191.90449906 29.90062989 -184.5 26.375 C-183.21865436 25.76223685 -181.93732317 25.14944348 -180.65600586 24.53662109 C-177.40488167 22.98435333 -174.14980504 21.44054792 -170.89373779 19.89868164 C-169.06166962 19.02926559 -167.23220246 18.15437511 -165.40283203 17.27929688 C-162.12856926 15.71510814 -158.84714565 14.16724378 -155.5625 12.625 C-154.58152344 12.15497559 -153.60054688 11.68495117 -152.58984375 11.20068359 C-143.52049366 6.99333545 -143.52049366 6.99333545 -139 8 C-136.38310366 9.52469447 -134.12046504 11.35922756 -131.8125 13.3125 C-131.19697266 13.81201172 -130.58144531 14.31152344 -129.94726562 14.82617188 C-127.69024184 16.6723831 -125.48954487 18.4789329 -123.4909668 20.60620117 C-121.9376969 22.25235108 -121.9376969 22.25235108 -119 23 C-118.62875 21.73929688 -118.62875 21.73929688 -118.25 20.453125 C-116.85664973 16.60399489 -115.05946743 13.27198778 -113 9.75 C-112.64421875 9.12609375 -112.2884375 8.5021875 -111.921875 7.859375 C-110.44547141 5.30321356 -109.09638349 3.09638349 -107 1 C-105.07983398 0.51342773 -105.07983398 0.51342773 -102.74609375 0.18359375 C-101.4631543 -0.00299805 -101.4631543 -0.00299805 -100.15429688 -0.19335938 C-98.80948242 -0.37608398 -98.80948242 -0.37608398 -97.4375 -0.5625 C-96.13329102 -0.75102539 -96.13329102 -0.75102539 -94.80273438 -0.94335938 C-63.52357027 -5.39848267 -31.18124528 -5.2437912 0 0 Z M-72.6875 11.875 C-74.52924805 11.99294922 -74.52924805 11.99294922 -76.40820312 12.11328125 C-79.94539016 12.3582649 -83.470499 12.66289851 -87 13 C-88.04639648 13.0827417 -89.09279297 13.1654834 -90.17089844 13.25073242 C-95.34680343 13.80410528 -95.34680343 13.80410528 -99.61499023 16.515625 C-100.93114635 18.47407762 -101.91339907 20.40872885 -102.875 22.5625 C-103.2366626 23.28324707 -103.5983252 24.00399414 -103.97094727 24.74658203 C-104.68472037 26.17156475 -105.38362575 27.6041124 -106.06591797 29.04443359 C-107.25981356 31.54393796 -108.58180947 33.96005272 -109.9375 36.375 C-110.47697266 37.37660156 -110.47697266 37.37660156 -111.02734375 38.3984375 C-112 40 -112 40 -114 42 C-118.30388918 42.60127864 -121.01653782 42.32685566 -124.5 39.8046875 C-125.68056887 38.84497787 -126.84695835 37.86761291 -128 36.875 C-128.61230469 36.37452148 -129.22460938 35.87404297 -129.85546875 35.35839844 C-133.01251676 32.76174328 -136.02445791 30.05285438 -139 27.25 C-141.74445106 24.68672846 -141.74445106 24.68672846 -144.7578125 25.16357422 C-148.40874794 26.10544958 -151.48993073 27.47036943 -154.875 29.1328125 C-155.52138428 29.44773651 -156.16776855 29.76266052 -156.83374023 30.08712769 C-158.89278842 31.09253295 -160.94636613 32.10858917 -163 33.125 C-164.34731488 33.78455198 -165.69496883 34.44341175 -167.04296875 35.1015625 C-169.71510627 36.40779324 -172.38181149 37.72430056 -175.04516602 39.04833984 C-177.6944016 40.36351904 -180.35599665 41.64680479 -183.03100586 42.90869141 C-183.67227417 43.21612274 -184.31354248 43.52355408 -184.97424316 43.84030151 C-186.72941306 44.68145202 -188.48943386 45.51245903 -190.24975586 46.34277344 C-194.66557165 49.00363074 -195.74973444 52.17441363 -197 57 C-197.37705078 58.52367188 -197.37705078 58.52367188 -197.76171875 60.078125 C-200.93389467 70.66040355 -207.03119993 74.11551508 -215.94287109 79.65722656 C-230.67530277 89.27369633 -246.0744792 104.1489584 -254 120 C-257.9544405 146.36293664 -254.91787473 181.99046979 -243.859375 206.53125 C-241.18675299 210.07977334 -237.92136318 212.38646793 -234.3125 214.9375 C-233.52286865 215.49888672 -232.7332373 216.06027344 -231.91967773 216.63867188 C-210.24601245 231.75311903 -185.84531135 245.3460688 -160.625 253.4609375 C-157.01765626 255.57595749 -156.08262953 258.13882994 -155 262 C-153.98777424 266.29692026 -153.09919263 270.62111782 -152.33398438 274.96875 C-151.78036596 277.52803792 -151.20688401 279.67485231 -150 282 C-147.01516525 283.65303629 -145.22373411 284.31241219 -142 285 C-141.17717529 285.22816406 -140.35435059 285.45632813 -139.5065918 285.69140625 C-118.47388901 291.51424734 -96.79321544 295.46395867 -75.00390625 296.73046875 C-74.06170731 296.7871019 -73.11950836 296.84373505 -72.14875793 296.90208435 C-67.48326932 297.1756979 -62.82117903 297.40672897 -58.15063477 297.57299805 C-48.5036074 298.00803678 -41.86097612 298.51218381 -35 306 C-34.00871094 306.86625 -33.01742187 307.7325 -31.99609375 308.625 C-31.15175781 309.40875 -30.30742187 310.1925 -29.4375 311 C-23.35106405 316.59884854 -17.14194687 322.03138941 -10.85791016 327.40649414 C-9.62133352 328.46709016 -8.38791357 329.53137798 -7.15771484 330.59936523 C-4.63102484 332.78754313 -2.13140638 334.9044861 0.57421875 336.87109375 C6.98435839 341.62241721 7.84799204 347.39053092 9 355 C9.31914886 357.80708539 9.5955639 360.61640843 9.8666687 363.42852783 C10.9680627 387.34309276 10.9680627 387.34309276 21.39111328 407.57177734 C29.09391808 413.14698186 39.55419556 416.4353409 49 417 C51.97775924 415.90034128 54.02826049 414.31288201 56.3125 412.125 C56.84488281 411.63257813 57.37726563 411.14015625 57.92578125 410.6328125 C59.21495274 409.06642725 59.21495274 409.06642725 58.73730469 407.18041992 C57.88658226 404.66459144 56.71553279 402.71333002 55.27734375 400.48046875 C54.73916016 399.62259766 54.20097656 398.76472656 53.64648438 397.88085938 C52.51132995 396.09185601 51.36813653 394.30792714 50.21679688 392.52929688 C49.67990234 391.66755859 49.14300781 390.80582031 48.58984375 389.91796875 C48.09347412 389.14219482 47.59710449 388.3664209 47.08569336 387.56713867 C44.34050703 381.07610332 46.59806334 375.69344917 49.04788208 369.51098633 C49.48840912 368.43486084 49.92893616 367.35873535 50.3828125 366.25 C50.8346994 365.11908936 51.2865863 363.98817871 51.75216675 362.82299805 C53.19855699 359.21070675 54.66144912 355.60536792 56.125 352 C57.08704061 349.60591173 58.04798928 347.21138437 59.0078125 344.81640625 C60.84497015 340.23566798 62.69238696 335.65928835 64.54785156 331.0859375 C66.03445045 327.4149861 67.49728594 323.73788549 68.91308594 320.0390625 C69.18659882 319.33031982 69.46011169 318.62157715 69.74191284 317.89135742 C70.42744296 316.10610704 71.10269065 314.31691696 71.77685547 312.52734375 C73 310 73 310 76 308 C78.81445313 307.72875977 78.81445313 307.72875977 82.28125 307.69140625 C84.22970825 307.65708496 84.22970825 307.65708496 86.2175293 307.62207031 C86.91357269 307.61292603 87.60961609 307.60378174 88.32675171 307.59436035 C105.53823796 307.34203575 122.62350095 306.25525363 139.73730469 304.43164062 C142.56669826 304.13445648 145.39407318 303.88501447 148.23144531 303.67773438 C164.8655195 302.90864944 164.8655195 302.90864944 178.69140625 294.8359375 C181.85575956 290.90044928 184.3600913 286.70214333 186.73046875 282.25244141 C188.46047035 279.18301933 190.58772798 276.73751162 192.875 274.0625 C199.71087544 264.41122316 195.4433017 248.13734156 194.5390625 236.82421875 C194.38670791 234.88517329 194.23456111 232.9461115 194.08261108 231.0070343 C193.76467476 226.96495758 193.44311056 222.92318922 193.11914062 218.8815918 C192.70530468 213.71318394 192.30236427 208.54399082 191.90232277 203.37449932 C191.5916147 199.37889085 191.27427201 195.38382977 190.95502853 191.38889503 C190.80368566 189.48296564 190.65459048 187.57685632 190.50783157 185.67056847 C190.3019674 183.00723622 190.08693963 180.3447925 189.86962891 177.68237305 C189.78223198 176.51410477 189.78223198 176.51410477 189.69306946 175.32223511 C189.10053507 167.14039404 189.10053507 167.14039404 185.33032227 160.14233398 C184.66572998 159.68157471 184.0011377 159.22081543 183.31640625 158.74609375 C182.56214355 158.20815186 181.80788086 157.67020996 181.03076172 157.1159668 C180.21623535 156.56207275 179.40170898 156.00817871 178.5625 155.4375 C176.84728992 154.22447616 175.1324578 153.01091773 173.41796875 151.796875 C172.53028809 151.17748047 171.64260742 150.55808594 170.72802734 149.91992188 C166.22289232 146.74931315 161.80271407 143.46488283 157.375 140.1875 C156.55201416 139.58284912 155.72902832 138.97819824 154.88110352 138.35522461 C154.12369873 137.79843018 153.36629395 137.24163574 152.5859375 136.66796875 C151.9161084 136.17578857 151.2462793 135.6836084 150.55615234 135.17651367 C149 134 149 134 148 133 C147.91933655 131.6095961 147.90639585 130.21516819 147.92163086 128.82250977 C147.92750717 127.93390762 147.93338348 127.04530548 147.93943787 126.129776 C147.94782181 125.16011398 147.95620575 124.19045197 147.96484375 123.19140625 C147.96112712 121.1438752 147.95519442 119.0963472 147.94726562 117.04882812 C147.93675282 113.81601911 147.93722648 110.58540446 147.97583008 107.3527832 C148.66212431 93.28876542 148.66212431 93.28876542 143.234375 80.85546875 C141.86459836 79.52597517 140.45728255 78.23295125 139 77 C138.15050781 76.02546875 137.30101562 75.0509375 136.42578125 74.046875 C135.72839844 73.28890625 135.03101563 72.5309375 134.3125 71.75 C131.94090692 69.15581712 129.61688426 66.56964049 127.4375 63.8125 C124.24874084 60.1331625 120.7487687 57.0973239 117 54 C116.27079346 53.38632568 116.27079346 53.38632568 115.52685547 52.76025391 C106.61075513 45.29237091 97.33740199 39.31525086 87 34 C86.05640625 33.50757812 85.1128125 33.01515625 84.140625 32.5078125 C78.68361214 29.84545168 73.04624547 27.95295507 67.25 26.1875 C66.54045166 25.96803711 65.83090332 25.74857422 65.09985352 25.52246094 C57.17134179 23.20929827 57.17134179 23.20929827 49.40820312 25.39868164 C46.41229287 27.3277195 43.51535079 29.35380266 40.625 31.4375 C39.61566406 32.14455078 38.60632813 32.85160156 37.56640625 33.58007812 C31.35539828 37.39736773 31.35539828 37.39736773 28.10253906 43.38598633 C27.02115138 50.15601569 27.13376661 56.0093505 30.84643555 61.95892334 C36.61496222 69.28722184 43.32792591 75.69075093 50.08795166 82.09204102 C52.3080808 84.2232215 54.46843157 86.41030381 56.63030624 88.60031414 C58.73359118 90.71983697 60.86601683 92.80788265 63.00891876 94.8872776 C64.02277251 95.87574138 65.02905252 96.87204211 66.02703094 97.8765316 C71.76485969 103.72895965 71.76485969 103.72895965 79.22424316 106.52944946 C82.38962982 106.54920289 82.38962982 106.54920289 85.3381958 106.173172 C89.58477867 105.89689727 92.65351431 107.50226068 96 110 C101.1598141 115.43138326 102.48152662 119.81139089 102.3046875 127.1796875 C101.74682693 132.34347384 100.06562858 135.91914565 96.41015625 139.6015625 C91.3829313 143.40652346 86.30135677 143.74835059 80.12890625 143.4765625 C74.629795 142.63899499 71.19758117 140.59827973 67.62890625 136.37890625 C64.87269291 131.94416852 65.06368858 128.56854517 65.57397461 123.46582031 C65.62687291 116.60739694 63.83561638 113.32910933 59.07667446 108.47409439 C57.51190318 106.95258886 55.91597129 105.46918497 54.31640625 103.984375 C53.21709297 102.91377458 52.12094213 101.83991826 51.02781677 100.76300049 C48.16286418 97.95674312 45.25889342 95.1946939 42.34375 92.44073486 C39.37392431 89.6218224 36.44092997 86.7651661 33.50585938 83.91015625 C30.21065336 80.70673797 26.91243668 77.50737048 23.5841217 74.33831787 C23.08125137 73.85836868 22.57838104 73.37841949 22.06027222 72.88392639 C20.7022938 71.58941146 19.34148871 70.2978636 17.98048401 69.00653076 C15.66075653 66.6562949 15.01492889 65.80014179 14.95336914 62.50073242 C14.99385376 60.9438269 14.99385376 60.9438269 15.03515625 59.35546875 C15.45332577 41.85928167 15.45332577 41.85928167 6.67578125 27.6015625 C5.35126953 26.31378906 5.35126953 26.31378906 4 25 C2.69329375 23.11450124 1.40059742 21.21918246 0.125 19.3125 C-2.84567662 15.67545922 -4.73812608 14.42119413 -9.390625 13.80078125 C-10.45200684 13.65697021 -11.51338867 13.51315918 -12.60693359 13.36499023 C-18.35726157 12.74643071 -24.10460616 12.26223215 -29.875 11.875 C-31.03902344 11.78863281 -32.20304688 11.70226563 -33.40234375 11.61328125 C-46.56669387 10.69483822 -59.53163564 10.94077328 -72.6875 11.875 Z M80.125 121.125 C78.73933788 123.0140578 78.73933788 123.0140578 79.25 125.625 C79.77745645 127.9312407 79.77745645 127.9312407 81 129 C83.45809998 129.2500773 83.45809998 129.2500773 86 129 C86.66 128.34 87.32 127.68 88 127 C87.67801034 123.90073181 87.67801034 123.90073181 87 121 C83.45033356 119.86559731 83.45033356 119.86559731 80.125 121.125 Z " fill="#000000" transform="translate(285,41)"/>
<path d="M0 0 C2.20914 3.31371 2.22481553 4.3446021 2.125 8.1875 C2.10695313 9.08855469 2.08890625 9.98960937 2.0703125 10.91796875 C2.04710937 11.60503906 2.02390625 12.29210937 2 13 C3.7015625 13.37125 3.7015625 13.37125 5.4375 13.75 C10.22541608 14.93199002 14.56069233 16.88310791 19 19 C19.42410156 18.566875 19.84820312 18.13375 20.28515625 17.6875 C23.45010481 14.68253785 25.30365938 13.12982622 29.6875 12.3125 C33 13 33 13 35.5 15.0625 C37.49261845 18.96471113 37.26519127 20.83231112 36 25 C33.4375 27.9375 33.4375 27.9375 31 30 C31.28617187 30.69480469 31.57234375 31.38960937 31.8671875 32.10546875 C33.05730592 35.1464265 34.10263453 38.21132475 35.125 41.3125 C35.47820312 42.38113281 35.83140625 43.44976562 36.1953125 44.55078125 C36.59363281 45.76314453 36.59363281 45.76314453 37 47 C38.01320313 47.03867188 38.01320313 47.03867188 39.046875 47.078125 C46.25074331 47.53617443 46.25074331 47.53617443 49.625 49.625 C51.54605311 52.94318265 51.47938032 55.23344032 51 59 C49.45737187 61.10358381 48.31891683 61.84054159 46 63 C44.46331135 63.22467831 42.92031946 63.40796805 41.375 63.5625 C40.14910156 63.68818359 40.14910156 63.68818359 38.8984375 63.81640625 C38.27195312 63.87699219 37.64546875 63.93757813 37 64 C36.00218529 66.72219353 35.01183999 69.44562003 34.046875 72.1796875 C33 75 33 75 31.375 78.25 C30.67504892 80.97484944 30.67504892 80.97484944 32.25390625 82.66796875 C33.37872529 83.85020315 34.50898034 85.02728864 35.64453125 86.19921875 C37 88 37 88 37.125 91.75 C36 95 36 95 34.375 97 C30.83189001 98.49183579 28.66988838 98.03014411 25 97 C22.0625 94.4375 22.0625 94.4375 20 92 C14.28062041 93.85493392 8.64444725 95.93103891 3 98 C2.97421875 98.67546875 2.9484375 99.3509375 2.921875 100.046875 C2.46382557 107.25074331 2.46382557 107.25074331 0.375 110.625 C-2.98430048 112.56985817 -5.18485224 112.54502111 -9 112 C-11.375 110.625 -11.375 110.625 -13 108 C-13.61549139 104.67217369 -13.87102732 101.37908409 -14 98 C-16.72219353 97.00218529 -19.44562003 96.01183999 -22.1796875 95.046875 C-25 94 -25 94 -28.25 92.375 C-30.97484944 91.67504892 -30.97484944 91.67504892 -32.66796875 93.25390625 C-33.85020315 94.37872529 -35.02728864 95.50898034 -36.19921875 96.64453125 C-38 98 -38 98 -41.75 98.125 C-45 97 -45 97 -46.9375 95.3125 C-48.40601629 92.1163175 -48.60666341 90.50516635 -48 87 C-46.21918128 84.14036645 -44.18405249 81.56106155 -42 79 C-42.39832031 78.25556641 -42.39832031 78.25556641 -42.8046875 77.49609375 C-45.11620712 73.05021478 -46.78475081 68.86099676 -48 64 C-48.67546875 63.97421875 -49.3509375 63.9484375 -50.046875 63.921875 C-57.35348226 63.45729304 -57.35348226 63.45729304 -60.5625 61.1875 C-62.03532072 58.94625108 -62.83803931 57.67235135 -63 55 C-61.91970563 51.2189697 -61.35693737 50.23795825 -58 48 C-55.51953125 47.8046875 -55.51953125 47.8046875 -52.8125 47.875 C-51.91144531 47.89304688 -51.01039063 47.91109375 -50.08203125 47.9296875 C-49.39496094 47.95289063 -48.70789063 47.97609375 -48 48 C-47.7525 46.845 -47.505 45.69 -47.25 44.5 C-46.29464298 40.53807823 -44.70743788 37.33698608 -42.609375 33.859375 C-41.77336826 31.9503713 -41.77336826 31.9503713 -42.7578125 29.87890625 C-43.9711021 27.85530641 -43.9711021 27.85530641 -46.125 26.1875 C-48 24 -48 24 -48.5 20.5 C-48 17 -48 17 -46.4375 14.5625 C-42.97226373 12.3411947 -41.04609167 12.30239799 -37 13 C-34.61795092 14.80347698 -32.96106055 16.70412424 -31 19 C-30.29230469 18.71382812 -29.58460938 18.42765625 -28.85546875 18.1328125 C-26.02063914 17.00818789 -23.17425849 15.92912659 -20.3125 14.875 C-19.35988281 14.52179688 -18.40726563 14.16859375 -17.42578125 13.8046875 C-15 13 -15 13 -13 13 C-13.05220703 11.98679688 -13.05220703 11.98679688 -13.10546875 10.953125 C-13.13253906 10.06109375 -13.15960938 9.1690625 -13.1875 8.25 C-13.22230469 7.36828125 -13.25710937 6.4865625 -13.29296875 5.578125 C-12.9454156 2.51965724 -12.07213783 1.23386566 -10 -1 C-6.36647238 -2.75411678 -3.55908674 -1.54742902 0 0 Z M-25 35 C-31.68155574 42.18231474 -33.48256423 49.01640733 -33.31640625 58.7421875 C-32.64684432 65.63619548 -29.41339354 72.53395033 -24 77 C-16.02094521 82.35630993 -8.56689896 84.58647068 1 83 C9.5247845 80.28540382 16.27024669 74.80294533 20.4375 66.875 C23.13550082 59.93560052 23.21483415 52.8187051 20.96484375 45.74609375 C17.81713595 38.74047109 13.8934016 33.56124373 7 30 C-5.01643787 25.93604656 -15.062519 26.37358246 -25 35 Z " fill="#000000" transform="translate(254,134)"/>
<path d="M0 0 C3.30042428 1.37517678 4.51223658 2.01192668 6 5.25 C6.5 8.1875 6.5 8.1875 6 11.25 C3.56903138 14.02046343 1.32106247 16.05982159 -1.85525513 17.94128418 C-5.83227871 20.36528667 -9.25766322 22.69123055 -10.61257172 27.36148071 C-11.58775743 33.87967869 -11.28072856 40.46398731 -11.1171875 47.03125 C-11.10639907 49.17156949 -11.10121016 51.31192383 -11.10134888 53.45227051 C-11.09004492 59.07227938 -11.01748333 64.68966097 -10.9274292 70.30889893 C-10.79043169 79.30049705 -10.73277244 88.29238664 -10.70175552 97.28489685 C-10.68006152 100.41478884 -10.6236636 103.54264508 -10.5632019 106.67199707 C-10.54608973 108.60358765 -10.53001378 110.53518778 -10.51513672 112.46679688 C-10.48922958 113.32732162 -10.46332245 114.18784637 -10.43663025 115.07444763 C-10.42900925 125.27531538 -16.75820431 132.52854993 -22.5234375 140.453125 C-24.28332602 143.78667046 -24.04963636 144.72583234 -23 148.25 C-22.20602822 156.00881279 -22.20808879 162.13814173 -27.17578125 168.4375 C-31.79785073 173.02987739 -36.15342676 174.45919484 -42.625 174.6875 C-48.00674944 174.44996071 -51.66760278 173.52619488 -55.62109375 169.66796875 C-60.46490365 164.33629311 -62.51348839 159.8416183 -62.30859375 152.5859375 C-61.42139491 145.8701792 -57.7907797 141.55337673 -52.68359375 137.37890625 C-49.28373048 135.09918354 -46.27438345 135.14088961 -42.3125 135.1875 C-41.31863281 135.19652344 -40.32476562 135.20554688 -39.30078125 135.21484375 C-38.16189453 135.23224609 -38.16189453 135.23224609 -37 135.25 C-36.63143135 134.16390945 -36.63143135 134.16390945 -36.25541687 133.05587769 C-34.86941286 129.95813556 -33.08956216 127.95047385 -30.91333008 125.35595703 C-25.31849745 117.04356653 -26.05113905 108.48928405 -26.3051815 98.76729965 C-26.38824025 95.4947397 -26.4173932 92.22547275 -26.43281555 88.95193481 C-26.48717706 79.65664326 -26.64601509 70.36358849 -26.81762695 61.06982422 C-26.91934225 55.36292027 -26.96716036 49.65746023 -26.9843235 43.94971085 C-27.01122997 40.73803013 -27.10164338 37.53212254 -27.19352722 34.32174683 C-27.38147953 19.41951135 -27.38147953 19.41951135 -23.68447876 14.80596924 C-20.91336359 12.24926452 -18.17966768 10.26341724 -15 8.25 C-13.07301739 6.70024022 -11.15491323 5.13930783 -9.25 3.5625 C-3.75476695 -0.3234148 -3.75476695 -0.3234148 0 0 Z M-45 150.25 C-47.31543207 153.01988076 -47.31543207 153.01988076 -46.6875 155.875 C-46.2258486 158.18501965 -46.2258486 158.18501965 -45 159.25 C-42.54190002 159.5000773 -42.54190002 159.5000773 -40 159.25 C-37.7508092 157.42296773 -37.7508092 157.42296773 -37.75 154.75 C-37.7508092 152.07703227 -37.7508092 152.07703227 -40 150.25 C-42.5 149.83333333 -42.5 149.83333333 -45 150.25 Z " fill="#000000" transform="translate(142,79.75)"/>
<path d="M0 0 C0.86193466 -0.0049649 1.72386932 -0.00992981 2.61192322 -0.01504517 C5.47127065 -0.02968365 8.33056261 -0.03647147 11.18994141 -0.04199219 C13.17290245 -0.0477421 15.15586347 -0.05349986 17.13882446 -0.05926514 C21.30007182 -0.06977983 25.46129982 -0.07561948 29.62255859 -0.07910156 C34.95819257 -0.08458828 40.29357162 -0.10861818 45.6291256 -0.13707352 C49.72631582 -0.15568441 53.82344444 -0.16090466 57.92067337 -0.16243744 C59.88788879 -0.16546783 61.85510302 -0.17350933 63.82227707 -0.18662262 C66.5731224 -0.20365128 69.3233423 -0.20181072 72.07421875 -0.1953125 C72.88891129 -0.20452728 73.70360382 -0.21374207 74.54298401 -0.22323608 C77.84400793 -0.19877209 80.22857995 -0.08230746 83.14492798 1.53887939 C85.24113046 3.77378045 85.59524688 5.0970805 85.66650391 8.16113281 C83.38939547 13.79968703 83.38939547 13.79968703 80.66650391 15.16113281 C78.10991798 15.21586965 75.58165707 15.21022688 73.02661133 15.16015625 C71.39064762 15.13738378 69.75467602 15.1151735 68.11869812 15.09344482 C67.24830084 15.08066246 66.37790356 15.0678801 65.4811306 15.05471039 C59.89112672 14.98413771 54.30060824 14.97788798 48.71023083 14.96085739 C43.80536838 14.94226716 38.90284386 14.90068722 33.9987793 14.80810547 C29.24933678 14.71971489 24.50332108 14.69602172 19.75313759 14.71448517 C17.95226218 14.71021413 16.1512776 14.68323302 14.35112572 14.63201141 C5.56810855 14.39445882 -1.4426096 14.4719546 -8.26950359 20.53194046 C-13.84505667 25.97484053 -13.84505667 25.97484053 -15.93708801 33.26141357 C-15.86718321 35.76645411 -15.71864715 38.27035746 -15.49755859 40.76660156 C-15.29247844 45.00980755 -16.02123784 47.25007553 -18.59130859 50.57519531 C-23.23010525 54.79795639 -28.66377435 57.38602663 -34.95849609 57.72363281 C-41.10634175 57.32174184 -46.13351329 54.83479756 -50.20849609 50.22363281 C-54.1412126 44.55589432 -55.08329869 39.97965018 -54.33349609 33.16113281 C-52.35322842 26.90765593 -49.25931081 23.34292592 -44.06005859 19.46582031 C-40.588924 17.8048476 -38.83489322 18.38719445 -35.08349609 19.03613281 C-29.38502396 19.25948394 -26.97173377 18.23476062 -22.70849609 14.42285156 C-18.9314981 10.71784913 -15.36333175 6.83312227 -11.89892578 2.83520508 C-8.54700584 -0.74934187 -4.58254 0.00625672 0 0 Z M-37.33349609 33.16113281 C-39.59788009 35.85268482 -39.59788009 35.85268482 -39.08349609 38.22363281 C-38.40816891 40.35590256 -38.40816891 40.35590256 -36.33349609 42.16113281 C-33.02666143 41.87130013 -33.02666143 41.87130013 -30.33349609 40.16113281 C-30.08341879 37.70303283 -30.08341879 37.70303283 -30.33349609 35.16113281 C-32.1626525 32.92268266 -32.1626525 32.92268266 -34.83349609 32.84863281 C-35.65849609 32.95175781 -36.48349609 33.05488281 -37.33349609 33.16113281 Z " fill="#000000" transform="translate(194.33349609375,87.8388671875)"/>
<path d="M0 0 C2.84821386 1.46259631 3.76625002 2.36553576 4.875 5.375 C5.02959825 8.62156319 4.53767796 10.12374475 3 13 C0.92086468 14.65996944 -1.12280266 16.12938377 -3.3203125 17.609375 C-14.06959936 25.57251749 -24.12168792 33.98156399 -26.44628906 47.78564453 C-27.31950049 55.46476294 -27.39660155 63.09293293 -27.25 70.8125 C-27.23471252 72.0967688 -27.21942505 73.3810376 -27.20367432 74.70422363 C-27.12776866 78.42057865 -26.97091111 82.12072604 -26.765625 85.83203125 C-26.71793976 86.95400406 -26.67025452 88.07597687 -26.62112427 89.23194885 C-26.13811978 94.96014278 -25.48307192 98.19584077 -21.01464844 102.01049805 C-19.95960114 102.75072456 -19.95960114 102.75072456 -18.88323975 103.50590515 C-14.79395564 106.75019645 -14.18985156 111.5083092 -13.5625 116.4375 C-14.25399716 122.06826261 -15.77856727 126.85902158 -19.94140625 130.87109375 C-26.11855805 135.61487331 -31.25736099 136.81561924 -39 136 C-44.89671368 134.21466281 -48.62018224 131.06972664 -52 126 C-54.42408525 120.27034396 -54.35817035 114.98784591 -53 109 C-50.53212588 104.1556545 -47.30605535 101.18273656 -43 98 C-42.34 98 -41.68 98 -41 98 C-41.01554428 97.22849609 -41.03108856 96.45699219 -41.04710388 95.66210938 C-41.18778709 88.36550595 -41.29414855 81.06956659 -41.3626852 73.7719574 C-41.39910707 70.02071949 -41.44844648 66.27060876 -41.52807617 62.52001953 C-41.60454346 58.89539645 -41.64607325 55.27185223 -41.6641407 51.64648438 C-41.67700314 50.26854478 -41.70212196 48.89065949 -41.7401104 47.51318359 C-42.06093091 35.38991367 -42.06093091 35.38991367 -37.85107422 30.49194336 C-36.59267291 29.30066597 -35.30937633 28.13501071 -34 27 C-32.94215647 25.91468196 -31.89188577 24.82191699 -30.8503418 23.72094727 C-29.80261797 22.6667926 -28.75218584 21.61532359 -27.69921875 20.56640625 C-27.13676956 20.00300034 -26.57432037 19.43959442 -25.99482727 18.8591156 C-24.82224072 17.68585603 -23.64842062 16.51382805 -22.47338867 15.34301758 C-20.67052659 13.54557764 -18.87315015 11.74277339 -17.07617188 9.93945312 C-15.93000853 8.79394953 -14.78353558 7.64875561 -13.63671875 6.50390625 C-13.10028244 5.96544571 -12.56384613 5.42698517 -12.01115417 4.87220764 C-7.86486288 0.75217171 -5.92271259 -0.47381701 0 0 Z M-37 112 C-38.29042763 114.26601865 -38.29042763 114.26601865 -39 117 C-37.73647948 119.32511472 -37.73647948 119.32511472 -36 121 C-33.54775306 120.89386164 -33.54775306 120.89386164 -31 120 C-29.42776606 117.69464365 -29.42776606 117.69464365 -29 115 C-29.66 114.01 -30.32 113.02 -31 112 C-34.08365871 111.7497843 -34.08365871 111.7497843 -37 112 Z " fill="#000000" transform="translate(350,238)"/>
<path d="M0 0 C3.24673526 0.96996065 4.03624314 3.20281577 5.66918945 6.02441406 C8.21293363 11.03229124 10.24640086 16.23469535 12.28442383 21.46411133 C12.96601563 23.1734082 12.96601563 23.1734082 13.66137695 24.91723633 C16.97192383 33.30063623 16.97192383 33.30063623 16.97192383 35.58911133 C24.9526186 35.64385655 32.93172989 35.65540918 40.91243935 35.61245728 C44.61872268 35.59385379 48.32379525 35.58989495 52.0300293 35.61987305 C55.6098517 35.64828204 59.18765638 35.63760963 62.76737595 35.60031128 C64.13004521 35.59288861 65.49286572 35.59933575 66.85539627 35.62014771 C74.48880492 35.96226091 74.48880492 35.96226091 81.08343506 32.80957031 C82.71042041 30.70851077 82.71042041 30.70851077 83.88827515 28.49316406 C85.63640505 25.42156754 87.68102181 24.66498314 90.97192383 23.58911133 C97.41850239 22.21080244 103.27495532 21.90491475 108.97192383 25.58911133 C113.28064236 29.60557182 116.71888713 33.21691074 117.17504883 39.29614258 C117.27749498 46.08320014 117.34722783 51.06038442 112.42504883 56.20629883 C108.23365378 60.08241195 104.51093281 62.54796006 98.62036133 62.61645508 C92.70575694 62.26801162 88.73255752 61.13625016 83.97192383 57.58911133 C83.40868408 56.4001123 82.84544434 55.21111328 82.26513672 53.98608398 C80.27959375 51.15641672 79.25701342 50.64507359 75.80880737 49.96820068 C72.32855369 49.80024216 68.89809148 49.74779406 65.41662407 49.81663132 C63.0660645 49.86308146 60.71866391 49.86740331 58.36769104 49.86123657 C54.22755648 49.85731323 50.08870885 49.89071906 45.94885254 49.93634033 C39.3196921 50.00883632 32.69121995 50.04994588 26.06166267 50.04310989 C23.7476502 50.04996109 21.43557159 50.08822335 19.12193298 50.12850952 C17.70271136 50.13282725 16.28348513 50.13587597 14.86425781 50.13745117 C13.00824196 50.15912857 13.00824196 50.15912857 11.11473083 50.1812439 C7.97192383 49.58911133 7.97192383 49.58911133 5.65084839 47.28517151 C4.32829564 45.16138234 3.1617406 43.20961078 2.21679688 40.90380859 C1.79197273 39.88233482 1.79197273 39.88233482 1.35856628 38.84022522 C1.06984146 38.1192717 0.78111664 37.39831818 0.48364258 36.65551758 C0.17618607 35.89996078 -0.13127045 35.14440399 -0.44804382 34.36595154 C-1.09186678 32.77505175 -1.73118099 31.18232065 -2.36621094 29.58789062 C-3.33884207 27.15594723 -4.33589679 24.73500579 -5.3347168 22.3137207 C-5.95927736 20.76159456 -6.58237448 19.20887858 -7.20385742 17.65551758 C-7.5027034 16.93658829 -7.80154938 16.217659 -8.10945129 15.47694397 C-9.81966432 11.10232113 -10.31903809 8.12975063 -9.02807617 3.58911133 C-7.03001295 0.0631174 -3.90202937 -0.17831022 0 0 Z M96.97192383 37.58911133 C94.64680911 38.85263185 94.64680911 38.85263185 92.97192383 40.58911133 C93.07806219 43.04135827 93.07806219 43.04135827 93.97192383 45.58911133 C96.27728017 47.16134526 96.27728017 47.16134526 98.97192383 47.58911133 C99.96192383 46.92911133 100.95192383 46.26911133 101.97192383 45.58911133 C102.22213953 42.50545262 102.22213953 42.50545262 101.97192383 39.58911133 C99.70590518 38.2986837 99.70590518 38.2986837 96.97192383 37.58911133 Z " fill="#000000" transform="translate(180.028076171875,251.410888671875)"/>
<path d="M0 0 C5.30076899 3.91247235 9.25292385 8.35153447 10.625 14.9375 C11.25875482 21.90880303 9.31231986 26.50026021 5.375 32.1875 C2.37969809 35.18280191 -0.22257254 37.11484928 -4.375 37.9375 C-6.12660252 37.76561377 -7.8765844 37.57674026 -9.625 37.375 C-13.74587471 37.22802779 -15.03307683 37.65000542 -18.24609375 40.3515625 C-20.67122593 42.95251991 -22.91969573 45.6991061 -25.15527344 48.46337891 C-35.71628651 61.22706925 -54.61326082 69.25876391 -70.375 72.9375 C-71.365 72.9375 -72.355 72.9375 -73.375 72.9375 C-73.35179687 73.74574219 -73.32859375 74.55398438 -73.3046875 75.38671875 C-73.27761719 76.98966797 -73.27761719 76.98966797 -73.25 78.625 C-73.22679687 79.68074219 -73.20359375 80.73648438 -73.1796875 81.82421875 C-73.44843984 86.10813107 -74.32767383 88.89017383 -77.375 91.9375 C-84.58459655 92.5096902 -84.58459655 92.5096902 -86.97119141 90.78198242 C-89.9990573 86.80362993 -88.84078622 80.73072789 -88.8125 75.9375 C-88.8424707 74.13539063 -88.8424707 74.13539063 -88.87304688 72.296875 C-88.87240234 71.14703125 -88.87175781 69.9971875 -88.87109375 68.8125 C-88.87294678 67.75804687 -88.8747998 66.70359375 -88.87670898 65.6171875 C-88.375 62.9375 -88.375 62.9375 -86.62036133 61.15307617 C-84.373114 59.93647897 -82.4311397 59.218016 -79.953125 58.61328125 C-79.10024902 58.39365723 -78.24737305 58.1740332 -77.36865234 57.94775391 C-76.46324707 57.71749512 -75.5578418 57.48723633 -74.625 57.25 C-57.78712761 52.68581367 -40.53279996 44.90260661 -29.69140625 30.64453125 C-27.6885833 26.52596654 -28.34790712 23.24698726 -29.0390625 18.828125 C-29.56441846 14.30762019 -28.70496231 10.8306958 -26.375 6.9375 C-19.074538 -1.12184579 -10.54518603 -3.31978079 0 0 Z M-13.1875 15.4375 C-13.579375 15.9325 -13.97125 16.4275 -14.375 16.9375 C-13.74966625 19.46113988 -13.74966625 19.46113988 -12.375 21.9375 C-9.82724694 22.83136164 -9.82724694 22.83136164 -7.375 22.9375 C-5.63852052 21.26261472 -5.63852052 21.26261472 -4.375 18.9375 C-5.08457237 16.20351865 -5.08457237 16.20351865 -6.375 13.9375 C-10.09236641 13.58849442 -10.09236641 13.58849442 -13.1875 15.4375 Z " fill="#000000" transform="translate(452.375,214.0625)"/>
<path d="M0 0 C3.81338375 1.12989148 4.4919944 1.6126683 6.375 5 C6.75595093 8.10484314 6.75595093 8.10484314 6.76318359 11.80053711 C6.76844055 12.47583969 6.77369751 13.15114227 6.77911377 13.84690857 C6.79229176 16.07395727 6.7835831 18.30028807 6.7734375 20.52734375 C6.77545912 22.07906735 6.77837129 23.63079002 6.78213501 25.18251038 C6.78655556 28.43320774 6.78013704 31.68365761 6.76611328 34.93432617 C6.74903559 39.09508223 6.75885493 43.25525712 6.77683067 47.41599178 C6.78768809 50.62024793 6.78421299 53.82436705 6.7764473 57.0286274 C6.77444995 58.56238436 6.7768882 60.09615387 6.78388596 61.62989616 C6.79153138 63.7769537 6.77985378 65.92307993 6.76318359 68.07006836 C6.76079681 69.29044296 6.75841003 70.51081757 6.75595093 71.76817322 C6.33851931 75.30948676 5.56026135 77.20229531 3.375 80 C-0.24367559 81.2062252 -3.55006251 81.10816918 -7.3125 81.0625 C-8.01439453 81.05798828 -8.71628906 81.05347656 -9.43945312 81.04882812 C-11.16800538 81.03706927 -12.89651365 81.01913454 -14.625 81 C-14.89699219 81.76957031 -15.16898438 82.53914063 -15.44921875 83.33203125 C-17.3669848 87.68363993 -20.84491705 89.96161828 -24.875 92.3125 C-31.6031304 93.9945326 -37.80111515 93.75655492 -43.87109375 90.26171875 C-48.96537419 86.59701367 -51.56825009 82.23482449 -52.625 76 C-52.61434083 69.90295586 -51.69158104 64.10103701 -47.234375 59.59375 C-41.42917348 54.55084767 -37.2525011 53.48776218 -29.671875 53.6171875 C-23.70357656 54.36705064 -20.11854983 57.39443394 -16.125 61.6875 C-14.625 64 -14.625 64 -14.625 66 C-12.645 66 -10.665 66 -8.625 66 C-8.64165459 64.84821259 -8.64165459 64.84821259 -8.65864563 63.67315674 C-8.75886253 56.4341166 -8.83497145 49.19541312 -8.88406086 41.95586014 C-8.91014706 38.2339441 -8.94552492 34.51260157 -9.00219727 30.79101562 C-9.05655547 27.19888431 -9.0864279 23.60730428 -9.09938622 20.0147934 C-9.10861959 18.64479645 -9.12665106 17.27482944 -9.15365028 15.90506744 C-9.18997896 13.98551401 -9.19204269 12.06540489 -9.19262695 10.14550781 C-9.20928154 8.50669647 -9.20928154 8.50669647 -9.22627258 6.83477783 C-8.625 4 -8.625 4 -6.31608582 1.61590576 C-3.625 0 -3.625 0 0 0 Z M-34.625 69 C-36.11 71.475 -36.11 71.475 -37.625 74 C-36.635 75.32 -35.645 76.64 -34.625 78 C-30.69424356 77.42547254 -30.69424356 77.42547254 -27.625 75 C-27.94541397 72.39719432 -27.94541397 72.39719432 -28.625 70 C-31.595 69.505 -31.595 69.505 -34.625 69 Z " fill="#000000" transform="translate(96.625,120)"/>
<path d="M0 0 C6.83418397 1.43297406 11.69130772 7.06397099 15.94677734 12.42016602 C19.99933567 15.73107306 23.06464925 15.56977557 28.15625 15.546875 C29.04735474 15.55640198 29.93845947 15.56592896 30.85656738 15.57574463 C32.7358821 15.58788172 34.61531912 15.58709735 36.49462891 15.57421875 C39.36707769 15.56253223 42.23366132 15.61480293 45.10546875 15.671875 C46.93489171 15.67575989 48.76432731 15.67588599 50.59375 15.671875 C51.87674988 15.70254059 51.87674988 15.70254059 53.18566895 15.73382568 C57.76084344 15.69483255 57.76084344 15.69483255 61.45532227 13.28210449 C62.78494658 11.45183247 62.78494658 11.45183247 63.8145752 9.55157471 C65.76639745 6.35062665 68.40318805 4.85343127 71.875 3.8125 C78.91234991 2.8598064 85.39257062 2.78349121 91.21875 7.21484375 C96.16770216 11.98871505 98.16803764 15.97839049 98.375 22.9375 C98.04644447 29.64340258 96.46949564 33.53690267 91.5 38.0625 C86.5730099 41.98356296 82.50263683 43.29239549 76.21484375 43.125 C70.71354356 42.39026876 66.49462505 39.83583432 62.875 35.6875 C60.875 32.8125 60.875 32.8125 60.875 30.8125 C59.99962585 30.83581642 59.99962585 30.83581642 59.10656738 30.85960388 C53.00689846 31.01503142 46.90779594 31.12027463 40.80664062 31.19702148 C38.53297052 31.23212297 36.25945729 31.27981746 33.98632812 31.34057617 C30.70924107 31.42594687 27.43425 31.46529243 24.15625 31.49609375 C22.64327332 31.55028725 22.64327332 31.55028725 21.09973145 31.60557556 C15.67082888 31.60856429 12.53811173 31.07436123 8.36694336 27.45849609 C7.18129153 26.26429605 6.01559606 25.04980539 4.875 23.8125 C3.82777699 22.80228793 2.77721291 21.79552284 1.72265625 20.79296875 C0.80355469 19.87128906 -0.11554688 18.94960938 -1.0625 18 C-1.54267578 17.52369141 -2.02285156 17.04738281 -2.51757812 16.55664062 C-6.9879136 12.0736949 -6.9879136 12.0736949 -7.4375 7.9375 C-7.125 4.8125 -7.125 4.8125 -5.5625 2.4375 C-3.125 0.8125 -3.125 0.8125 0 0 Z M73.875 20.8125 C74.19698966 23.91176819 74.19698966 23.91176819 74.875 26.8125 C77.22867713 27.5003236 77.22867713 27.5003236 79.875 27.8125 C80.865 27.1525 81.855 26.4925 82.875 25.8125 C83.29166667 23.3125 83.29166667 23.3125 82.875 20.8125 C81.04796773 18.5633092 81.04796773 18.5633092 78.375 18.5625 C75.70203227 18.5633092 75.70203227 18.5633092 73.875 20.8125 Z " fill="#000000" transform="translate(340.125,293.1875)"/>
<path d="M0 0 C4.64374561 4.31976336 7.87591903 10.12572747 8.25 16.5625 C7.37090325 22.71617727 5.55049201 28.19824399 0.8125 32.4375 C-4.54437449 35.97303716 -9.88469697 37.5977058 -16.3125 36.5 C-21.33030239 34.739235 -25.3349205 33.19992348 -28.05175781 28.47558594 C-30.03900836 25.2803516 -30.03900836 25.2803516 -33.29492188 24.50146484 C-37.13783586 24.18122201 -40.95749656 23.92945684 -44.8125 23.875 C-45.85262238 23.84963669 -45.85262238 23.84963669 -46.91375732 23.82376099 C-56.88035535 23.7256481 -63.00688387 25.45543406 -70.39257812 32.61767578 C-73.56844017 36.1365943 -76.58607976 39.73583095 -79.40087891 43.55053711 C-81.71178844 45.90719261 -83.04671399 46.31677215 -86.3125 46.5 C-91.95105422 44.22289157 -91.95105422 44.22289157 -93.3125 41.5 C-93.65342601 38.09541012 -93.74366168 36.1718644 -91.87109375 33.25390625 C-91.17113281 32.53074219 -90.47117187 31.80757812 -89.75 31.0625 C-88.53957031 29.79792969 -88.53957031 29.79792969 -87.3046875 28.5078125 C-86.30814789 27.50435728 -85.31065667 26.50184671 -84.3125 25.5 C-83.02323312 24.1850962 -81.73418441 22.86997845 -80.4453125 21.5546875 C-77.79675424 18.86986941 -75.14457368 16.18893027 -72.47265625 13.52734375 C-71.91199463 12.96781006 -71.35133301 12.40827637 -70.77368164 11.83178711 C-67.31739867 8.68157431 -63.43025934 9.37387734 -59.0234375 9.40234375 C-57.79580185 9.40446617 -57.79580185 9.40446617 -56.54336548 9.40663147 C-53.92470675 9.4122371 -51.30613296 9.42479052 -48.6875 9.4375 C-46.91406373 9.44251428 -45.14062613 9.44707731 -43.3671875 9.45117188 C-39.01559218 9.46220836 -34.6640605 9.47947675 -30.3125 9.5 C-30.01230957 8.71069092 -29.71211914 7.92138184 -29.40283203 7.1081543 C-27.49518776 2.5449291 -23.85384858 -0.2950956 -19.42578125 -2.39453125 C-12.6736374 -4.51741623 -6.28622817 -2.84659389 0 0 Z M-15.5625 13.4375 C-16.42875 14.4584375 -16.42875 14.4584375 -17.3125 15.5 C-16.68716625 18.02363988 -16.68716625 18.02363988 -15.3125 20.5 C-12.76474694 21.39386164 -12.76474694 21.39386164 -10.3125 21.5 C-8.57602052 19.82511472 -8.57602052 19.82511472 -7.3125 17.5 C-7.72637499 14.75696427 -7.72637499 14.75696427 -9.3125 12.5 C-12.30333477 10.80519363 -12.94708576 11.18533774 -15.5625 13.4375 Z " fill="#000000" transform="translate(408.3125,192.5)"/>
<path d="M0 0 C2.17480469 1.35205078 2.17480469 1.35205078 4 4 C4.5383122 7.56190226 4.41301779 11.08564215 4.328125 14.6796875 C4.32311998 16.82682064 4.31924895 18.97395666 4.31640625 21.12109375 C4.28938267 24.50100609 4.24991343 27.87980003 4.18896484 31.25927734 C4.13797157 34.52522982 4.13629119 37.78840495 4.140625 41.0546875 C4.10866028 42.06111298 4.07669556 43.06753845 4.04376221 44.10446167 C4.01722834 49.49691572 4.01722834 49.49691572 6.77062988 53.91241455 C8.88525652 55.5274755 8.88525652 55.5274755 11.09100342 56.79763794 C14.64922473 59.0387474 15.56565177 62.16342522 16.49609375 66.09765625 C17.56283689 72.50911243 16.38096461 77.28132029 12.89453125 82.7265625 C10.07650438 86.42921269 7.39778683 88.56072431 3 90 C-4.44425544 90.83981155 -10.00378984 90.65012217 -16 86 C-20.69235232 81.53348282 -22.71789147 77.04677209 -23.3125 70.625 C-22.76329376 64.25420759 -21.3056269 59.81032069 -16.4375 55.5 C-13.34574468 53 -13.34574468 53 -11 53 C-11.00999275 52.13342522 -11.00999275 52.13342522 -11.02018738 51.24934387 C-11.08660998 45.23098318 -11.13182935 39.21272681 -11.16479492 33.1940918 C-11.17987182 30.94860606 -11.20033653 28.70314971 -11.22631836 26.45776367 C-11.26274918 23.22827901 -11.27973755 19.99918406 -11.29296875 16.76953125 C-11.30845261 15.76727005 -11.32393646 14.76500885 -11.33988953 13.7323761 C-11.34201003 4.93007379 -11.34201003 4.93007379 -8 1 C-5.15916359 -0.42041821 -3.14522722 -0.31452272 0 0 Z M-6.8125 67.1875 C-8.2888365 69.01846177 -8.2888365 69.01846177 -7.6875 71.6875 C-7.460625 72.450625 -7.23375 73.21375 -7 74 C-4.03 74.495 -4.03 74.495 -1 75 C-0.01 73.35 0.98 71.7 2 70 C0.77409808 67.92022703 0.77409808 67.92022703 -1 66 C-4.80350374 65.63464916 -4.80350374 65.63464916 -6.8125 67.1875 Z " fill="#000000" transform="translate(165,154)"/>
<path d="M0 0 C4.59529224 3.95408867 8.36198345 7.66244559 8.92578125 13.984375 C9.10886643 21.57759199 8.68253529 26.11546855 3.296875 31.7734375 C-0.9712679 35.65969393 -4.98691807 37.04922657 -10.625 37.6875 C-16.81978556 37.05752181 -22.21451733 35.01980327 -26.3125 30.1875 C-28.3125 27.3125 -28.3125 27.3125 -29.3125 25.3125 C-31.10107422 25.23902344 -31.10107422 25.23902344 -32.92578125 25.1640625 C-34.49221068 25.08902396 -36.05861579 25.0134766 -37.625 24.9375 C-38.41068359 24.9065625 -39.19636719 24.875625 -40.00585938 24.84375 C-40.76318359 24.80507812 -41.52050781 24.76640625 -42.30078125 24.7265625 C-43.34552612 24.67943115 -43.34552612 24.67943115 -44.41137695 24.63134766 C-46.3125 24.3125 -46.3125 24.3125 -49.3125 22.3125 C-50.14822001 18.84104767 -50.66948727 16.35600124 -49.5 12.9375 C-48.3125 11.3125 -48.3125 11.3125 -46.3125 10.3125 C-44.34030175 10.2937766 -42.36803865 10.27718405 -40.39575195 10.27587891 C-33.28693104 10.41334027 -33.28693104 10.41334027 -27.06640625 7.57421875 C-25.59890108 5.47090647 -25.59890108 5.47090647 -24.43359375 3.25390625 C-22.43008779 -0.21557968 -19.09434959 -1.13809638 -15.4375 -2.265625 C-10.09431903 -3.32640357 -4.80047124 -2.44552309 0 0 Z M-15.3125 15.3125 C-14.73797254 19.24325644 -14.73797254 19.24325644 -12.3125 22.3125 C-9.70969432 21.99208603 -9.70969432 21.99208603 -7.3125 21.3125 C-6.54533149 18.46171909 -6.54533149 18.46171909 -6.3125 15.3125 C-7.50145236 13.37217596 -7.50145236 13.37217596 -9.3125 12.3125 C-12.07473278 12.3125 -13.20531454 13.62675163 -15.3125 15.3125 Z " fill="#000000" transform="translate(405.3125,106.6875)"/>
<path d="M0 0 C1.05684494 -0.00744736 1.05684494 -0.00744736 2.13504028 -0.01504517 C4.45925889 -0.02961687 6.78340929 -0.03645952 9.10766602 -0.04199219 C10.72664898 -0.04774663 12.34563193 -0.05350433 13.96461487 -0.05926514 C17.35645871 -0.06976013 20.74827894 -0.07561298 24.14013672 -0.07910156 C28.4824314 -0.08459093 32.82441327 -0.10863455 37.16660976 -0.13707352 C40.50980031 -0.15571023 43.85291554 -0.16090599 47.19615364 -0.16243744 C48.79691343 -0.16546088 50.39767198 -0.17347902 51.99838066 -0.18662262 C54.23874551 -0.20370935 56.47834613 -0.20179717 58.71875 -0.1953125 C59.99241928 -0.19895813 61.26608856 -0.20260376 62.57835388 -0.20635986 C66.19745989 0.19116162 68.06160768 0.94771579 70.92407227 3.16113281 C72.42407227 6.03613281 72.42407227 6.03613281 72.92407227 9.16113281 C71.80890336 11.55078048 70.78456769 13.30063739 68.92407227 15.16113281 C66.48118866 15.27738943 64.06617753 15.3291176 61.62207031 15.33813477 C60.85781738 15.34470596 60.09356445 15.35127716 59.30615234 15.35804749 C56.76603102 15.37782796 54.22596895 15.3894539 51.68579102 15.39941406 C50.82012827 15.40348959 49.95446552 15.40756512 49.06257057 15.41176414 C44.48035544 15.43264572 39.89817044 15.44693804 35.31591797 15.45629883 C30.57764962 15.46736433 25.83985078 15.50175964 21.10174847 15.54147053 C17.46349706 15.56759293 13.8253582 15.57598678 10.18702126 15.57958031 C8.44028365 15.58445808 6.69355145 15.59610582 4.94690514 15.6146183 C2.50230939 15.63891627 0.05893685 15.63806226 -2.38574219 15.63110352 C-3.46987648 15.6503186 -3.46987648 15.6503186 -4.57591248 15.66992188 C-7.97275018 15.63465271 -9.77944684 15.38372353 -12.52922058 13.31925964 C-14.62557732 10.3942045 -14.59014244 8.68717651 -14.07592773 5.16113281 C-12.78852262 2.77943335 -11.9889464 1.48720792 -9.40879822 0.56573486 C-6.25259791 0.01833837 -3.20385329 0.01718625 0 0 Z " fill="#000000" transform="translate(207.075927734375,63.8388671875)"/>
<path d="M0 0 C5.11075462 2.71297767 8.39197386 6.66216079 11.2109375 11.62890625 C12.85406246 18.05203109 12.50415111 23.63209623 9.2421875 29.45703125 C6.27195431 33.56700508 2.71661907 36.71034573 -2.1015625 38.31640625 C-9.25318162 39.02117001 -15.18278119 38.64005501 -21.1015625 34.31640625 C-26.71602814 28.40644241 -27.61530959 23.59548351 -27.48046875 15.5859375 C-26.93146391 10.84864832 -25.35925295 7.76073521 -22.1015625 4.31640625 C-15.6198702 -0.73931374 -8.02721428 -2.61108271 0 0 Z M-10.1015625 14.31640625 C-12.3507533 16.14343852 -12.3507533 16.14343852 -12.3515625 18.81640625 C-12.3507533 21.48937398 -12.3507533 21.48937398 -10.1015625 23.31640625 C-7.00229431 22.99441659 -7.00229431 22.99441659 -4.1015625 22.31640625 C-3.33200114 19.97106674 -3.33200114 19.97106674 -3.1015625 17.31640625 C-4.18489583 15.39973958 -4.18489583 15.39973958 -6.1015625 14.31640625 C-7.4215625 14.31640625 -8.7415625 14.31640625 -10.1015625 14.31640625 Z " fill="#000000" transform="translate(463.1015625,263.68359375)"/>
<path d="M0 0 C4.60032529 3.35084009 6.12642435 8.45113724 8.15234375 13.55859375 C8.72535973 14.96879539 8.72535973 14.96879539 9.30995178 16.40748596 C10.52868704 19.41373071 11.73312489 22.42547764 12.9375 25.4375 C13.7432338 27.42940351 14.54986555 29.42094405 15.35742188 31.41210938 C17.26028189 36.11303443 19.1456874 40.82061871 21.01885986 45.53344727 C21.63583078 47.08449105 22.25480167 48.6347423 22.87664795 50.18383789 C23.60727244 52.00431105 24.32943728 53.82817338 25.05078125 55.65234375 C25.43016846 56.6074585 25.80955566 57.56257324 26.20043945 58.54663086 C27.44172565 62.35538963 27.61026675 64.29638647 26 68 C22.75 70.0625 22.75 70.0625 19 71 C15.6963026 70.20214143 14.35514722 69.51395864 12.40795898 66.69604492 C11.96266846 65.73802979 11.51737793 64.78001465 11.05859375 63.79296875 C10.55440918 62.71192871 10.05022461 61.63088867 9.53076172 60.51708984 C6.91120032 54.49836553 4.45165045 48.42510976 2.0625 42.3125 C1.02030046 39.66063996 -0.02453648 37.00982645 -1.0703125 34.359375 C-1.3229335 33.71770889 -1.5755545 33.07604279 -1.83583069 32.41493225 C-3.28395913 28.75274979 -4.78659565 25.12251085 -6.3671875 21.515625 C-6.70242432 20.74436279 -7.03766113 19.97310059 -7.38305664 19.1784668 C-7.97767439 17.82476256 -8.58508656 16.4765614 -9.20874023 15.13598633 C-11.12628351 10.7369871 -11.07801914 7.64289725 -10 3 C-7.67133148 -1.01048467 -4.26353269 -0.52359173 0 0 Z " fill="#000000" transform="translate(145,252)"/>
<path d="M0 0 C1.10794922 -0.00630432 2.21589844 -0.01260864 3.35742188 -0.019104 C5.1450293 -0.01303131 5.1450293 -0.01303131 6.96875 -0.00683594 C8.19658203 -0.00874939 9.42441406 -0.01066284 10.68945312 -0.01263428 C13.28515834 -0.01399514 15.88087037 -0.0103056 18.4765625 -0.00195312 C22.45328028 0.00874744 26.42954629 -0.00185211 30.40625 -0.01464844 C32.92708433 -0.01332683 35.44791838 -0.0107644 37.96875 -0.00683594 C39.16048828 -0.0108844 40.35222656 -0.01493286 41.58007812 -0.019104 C42.68802734 -0.01279968 43.79597656 -0.00649536 44.9375 0 C46.39833008 0.00238678 46.39833008 0.00238678 47.88867188 0.00482178 C50.58140909 0.26987854 52.20574312 0.79718333 54.46875 2.25878906 C56.02649936 5.37428778 56.03355622 8.86322786 55.46875 12.25878906 C54.31079102 13.8578186 54.31079102 13.8578186 52.46875 15.25878906 C49.8503418 15.63973999 49.8503418 15.63973999 46.66796875 15.64697266 C44.88096558 15.66115738 44.88096558 15.66115738 43.05786133 15.67562866 C41.12656372 15.66651962 41.12656372 15.66651962 39.15625 15.65722656 C37.82250815 15.65924762 36.48876737 15.66215932 35.1550293 15.66592407 C32.36073274 15.67034602 29.56672402 15.66392096 26.77246094 15.64990234 C23.19100535 15.63281 19.61022418 15.64265195 16.02879333 15.66061974 C13.27497274 15.67146137 10.52131199 15.66800961 7.76748657 15.66023636 C5.80486615 15.65726235 3.84223952 15.66637198 1.87963867 15.67562866 C0.68830322 15.66617218 -0.50303223 15.6567157 -1.73046875 15.64697266 C-3.30574341 15.64339249 -3.30574341 15.64339249 -4.9128418 15.63973999 C-7.53125 15.25878906 -7.53125 15.25878906 -9.34301758 13.88296509 C-10.97737016 11.6489945 -11.33427032 10.01650461 -11.53125 7.25878906 C-10.79181915 4.36828664 -10.33168412 2.77895306 -7.79492188 1.13043213 C-5.06350833 0.07868178 -2.92660673 0.00478164 0 0 Z " fill="#000000" transform="translate(195.53125,310.7412109375)"/>
<path d="M0 0 C2.5 2.0625 2.5 2.0625 4 5 C4.06666741 10.96992921 1.99674681 13.71948912 -1.96511841 17.79879761 C-2.65983246 18.48136627 -3.35454651 19.16393494 -4.0703125 19.8671875 C-4.78476532 20.58738068 -5.49921814 21.30757385 -6.23532104 22.04959106 C-7.74619118 23.56453457 -9.26462682 25.0719657 -10.79003906 26.57226562 C-13.11741046 28.86751521 -15.41105126 31.19299858 -17.703125 33.5234375 C-19.1777676 34.99411509 -20.65427044 36.46293028 -22.1328125 37.9296875 C-22.81538116 38.62440155 -23.49794983 39.3191156 -24.20120239 40.03488159 C-28.28051088 43.99674681 -31.03007079 46.06666741 -37 46 C-39.9375 44.5 -39.9375 44.5 -42 42 C-42.875 38.875 -42.875 38.875 -42 35 C-36.34781644 27.59584189 -29.25842486 21.10050393 -22.65917969 14.52880859 C-21.10231276 12.97739219 -19.55098142 11.42057932 -18 9.86328125 C-17.00292534 8.86686601 -16.00554126 7.87076028 -15.0078125 6.875 C-14.11723145 5.98554688 -13.22665039 5.09609375 -12.30908203 4.1796875 C-8.16098461 0.26403791 -5.69314633 -0.69915832 0 0 Z " fill="#000000" transform="translate(386,232)"/>
</svg>
