<svg width="1300" height="192" xmlns="http://www.w3.org/2000/svg">
  <path d="M108 32c.029 3.812.047 7.625.063 11.438l.025 3.298.01 3.135.016 2.904C108 55 108 55 107 56c-1.975.3-3.955.565-5.938.813C92.228 58.12 85.27 60.91 78 66l-2 2a2017.792 2017.792 0 0 1-3.5 3.39c-8.191 8.789-11.816 19.348-11.656 31.25.26 3.92 1.09 7.588 2.156 11.36l.555 2.027c3.6 11.225 12.893 19.508 23.058 24.875 7.12 3.274 13.526 4.225 21.387 5.098v24c-21.321 0-38.505-6.532-53.719-21.46L50 144c-10.151-12.056-14.577-27.362-14.438-42.813l.02-3.48C35.732 89.48 36.532 82.552 40 75l1.016-2.297A86.526 86.526 0 0 1 44 67l1.14-2.04C46.08 63.3 47.039 61.65 48 60l1.753-2.604c8.25-12.835 23.833-19.481 37.536-24.181C93.862 31.389 101.362 30.187 108 32Zm619.277.879c20.334-.375 39.105 6.043 54.16 19.934C783.06 54.395 783.06 54.395 784 56c-.152 2.674-.771 3.755-2.602 5.71l-2.023 1.665c-3.216 2.659-3.216 2.659-6.32 5.445l-1.805 1.68-1.61 1.531c-1.64.969-1.64.969-3.843.625l-3.069-2.338-1.753-1.253c-2.721-2.208-4.969-3.559-8.05-5.53-7.309-3.835-14.024-5.07-22.237-4.972l-2.8.029c-13.01.337-22.28 4.522-31.888 13.408-9.62 11.19-11.812 22.515-11.18 36.93.67 7.73 4.444 14.044 8.91 20.195 2.1 3.455 2.719 4.797 6.27 6.875 1.363.945 2.717 1.904 4.063 2.875 9.92 6.685 21.9 9.712 33.761 7.629 8.947-2.028 18.997-5.295 25.176-12.504.911-3.555.911-3.555.805-7.488l.041-2.131c.037-2.232.034-4.461.029-6.693.018-1.52.039-3.038.062-4.557.057-3.712.059-7.418.063-11.131h25v42h-2l-.79 1.766C779.647 157.88 764.556 165.123 752 169c-19.206 5.52-37.969 3.67-56-5-18.36-10.872-30.166-25.54-36-46-3.859-19.617.214-39.1 11.293-55.61 2.116-2.963 4.203-5.742 6.707-8.39l2-2c2.133-1.72 4.258-3.31 6.5-4.875l1.959-1.374c11.82-8.18 24.427-12.34 38.818-12.872ZM123 35c4.083-.145 8.165-.234 12.25-.313l3.512-.126 3.379-.05 3.11-.079C148 35 148 35 150.181 37.211c1.694 2.597 3.289 5.184 4.78 7.902l1.659 2.999 1.755 3.2c6.566 11.857 13.347 23.576 20.208 35.263A877.066 877.066 0 0 1 184 96a86.463 86.463 0 0 0 5.813-8.563l1.394-2.316c2.09-3.638 4.092-7.32 6.096-11.006a2324.51 2324.51 0 0 1 8.284-15.041l1.957-3.54C218.07 36.465 218.07 36.465 221 35a113.25 113.25 0 0 1 5.664-.098l3.399.01 3.562.026 3.586.013c2.93.012 5.86.028 8.789.049 0 4.254-.583 5.533-2.625 9.125l-1.668 2.957a434.056 434.056 0 0 1-4.644 7.73c-2.752 4.515-5.068 9.189-7.385 13.938-2.356 4.762-5.077 9.167-7.99 13.602-2.267 3.557-4.235 7.247-6.223 10.964-1.423 2.607-2.922 5.147-4.465 7.684-2.642 4.35-5.1 8.779-7.508 13.262C202 117 202 117 199.942 120.015c-2.662 4.677-2.527 9.205-2.516 14.477l-.043 2.99c-.042 3.13-.057 6.262-.07 9.393-.03 3.153-.064 6.305-.103 9.458a820.027 820.027 0 0 0-.047 5.872l-.021 2.662-.01 2.351C197 169 197 169 196 170c-6.926.216-13.861.137-20.791.13C173 170 173 170 172 169a316.435 316.435 0 0 1-.035-9.23c-.004-1.939-.01-3.877-.018-5.815-.01-3.052-.01-6.103.029-9.155.156-13.726-.895-22.534-8.976-33.8a334.872 334.872 0 0 1-3.414-5.793 4968.85 4968.85 0 0 0-4.828-8.103 461.384 461.384 0 0 1-9.182-16.196c-2.965-5.47-5.994-10.905-9.013-16.346l-1.909-3.447-1.9-3.424-1.863-3.362a241.498 241.498 0 0 0-3.958-6.708l-1.968-3.219-1.797-2.863C122 39 122 39 122.315 36.662Zm148.171-.145 3.937-.02 4.287-.003 4.404-.01c3.088-.006 6.175-.008 9.263-.007 3.923 0 7.845-.014 11.767-.031 3.04-.011 6.08-.013 9.12-.013 1.443 0 2.886-.005 4.33-.013 16.711-.082 31.035 1.06 43.678 12.941 7.42 8.357 10.605 18.508 10.363 29.551-.912 7.837-3.365 15.556-8.32 21.75 1.328 2.878 2.85 5.134 4.875 7.563 7.17 9.576 8.271 19.836 7.125 31.437-2.336 10.707-8.873 19.93-18 26-8.486 3.976-16.175 6.157-25.528 6.13l-2.244.004c-2.435.004-4.87.001-7.306-.002l-5.083.003c-3.544.001-7.088 0-10.632-.005a5180.52 5180.52 0 0 0-13.656.004c-3.495.004-6.99.002-10.485 0-1.68 0-3.359 0-5.038.002-2.34.003-4.678 0-7.017-.007l-2.12.006c-4.777-.02-4.777-.02-5.891-1.135-.1-2.429-.136-4.829-.13-7.258l-.004-2.3c-.004-2.523-.001-5.045.002-7.567l-.003-5.235c-.001-3.662 0-7.324.005-10.986.006-4.704.002-9.41-.004-14.114-.004-3.605-.002-7.21 0-10.814 0-1.735 0-3.47-.002-5.206-.003-2.42 0-4.841.007-7.262l-.006-2.195c.02-4.949.02-4.949 1.135-6.063 2.248-.119 4.5-.167 6.751-.19l2.139-.025c1.537-.017 3.075-.032 4.613-.045 2.433-.021 4.866-.048 7.3-.077 5.17-.06 10.34-.112 15.51-.163 5.979-.06 11.958-.122 17.937-.192 2.398-.026 4.795-.047 7.192-.068l4.419-.05 3.893-.039c2.62-.122 4.762-.37 7.246-1.151l2-2 2-2c.894-3.065 1.135-5.812 1.125-9l.008-2.563c-.125-2.284-.494-4.247-1.133-6.437-2.445-3.195-3.292-3.02-6-4-2.927-1.463-5.536-1.157-8.805-1.19l-2.119-.025c-1.52-.017-3.04-.032-4.56-.045-2.404-.021-4.807-.048-7.21-.077-5.103-.06-10.204-.112-15.306-.163-5.91-.06-11.82-.121-17.731-.192-2.372-.026-4.744-.047-7.116-.068l-4.348-.05-3.845-.039C265 60 265 60 263 59V36c2.781-1.39 5.06-1.135 8.171-1.145zM288 114v32c6.814.092 13.626.172 20.44.22 2.316.02 4.631.047 6.946.082 3.339.049 6.677.071 10.016.089l3.108.062c8.172.003 14.183-1.753 20.552-6.953 2.743-3.792 2.749-7.973 2.551-12.516-1.006-4.899-3.518-8.167-7.613-10.984-6.15-2.276-11.895-2.26-18.402-2.195l-3.266.008c-3.423.011-6.846.037-10.27.062-2.328.01-4.657.02-6.986.027-5.692.02-11.384.06-17.076.098Zm125.916-79.13 2.799-.005c3.064-.004 6.127-.001 9.191.002a9677.556 9677.556 0 0 1 19.723.002c5.717.006 11.434.003 17.151-.003 4.384-.004 8.767-.002 13.15 0 2.11 0 4.218 0 6.326-.002 2.943-.003 5.885.001 8.828.007l2.66-.007c6.027.022 6.027.022 8.256 1.136.029 3.812.047 7.625.063 11.438l.025 3.298.01 3.135.016 2.904C502 59 502 59 501 60c-2.972.106-5.921.147-8.894.145-132.149.476 27.605-.57-80.776.115-6.102-.032-6.102-.032-8.33-2.26-.227-2.247-.227-2.247-.195-5.008l.02-2.988.05-3.129.027-3.152c.024-2.575.057-5.149.098-7.723 3.376-1.688 7.203-1.138 10.916-1.13zm125.52-.015 3.453-.02 3.756-.003 3.866-.01c2.711-.006 5.422-.008 8.133-.007 3.438 0 6.876-.014 10.314-.031 3.312-.014 6.624-.013 9.937-.014l3.688-.022C598.799 34.79 613.386 37.104 626 48l2 2 2 2c1.299 2.205 2.589 4.413 3.875 6.625l1.105 1.871c6.341 10.952 6.753 23.671 4.332 36.008-2.087 6.113-5.236 11.4-9.022 16.593L628 116l-2 2c-8.541 6.365-19.058 12.476-30 12l1.938 3.313c1.328 2.27 2.22 4.018 3.708 6.4 1.799 1.067 1.153 1.354 3.354 2.287l2.25 1.5c8.183 4.464 17.673 4.046 26.75 4.5v24c-22.668.456-22.668.456-31-3l-3.418-1.406c-13.687-6.038-22.95-16.151-28.457-30.031C570 134 570 134 570 131h-12l-.076 3.472c-.094 4.237-.194 8.472-.296 12.708-.044 1.837-.085 3.673-.125 5.51-.058 2.633-.122 5.266-.187 7.9l-.05 2.503c-.152 5.793-.152 5.793-1.266 6.907-1.696.1-3.395.13-5.094.133l-3.12.004-3.286-.012-3.285.012-3.121-.004-2.885-.003C533 170 533 170 532 169a91.087 91.087 0 0 1-.12-5.17l-.004-3.395.01-3.758v-3.93c0-3.569.006-7.137.013-10.705.006-3.725.007-7.45.008-11.175.003-7.058.011-14.117.021-21.175.011-8.034.017-16.067.022-24.101.01-16.53.028-33.06.05-49.591 2.605-1.302 4.52-1.134 7.437-1.145zM557 60v46l20 .25 6.266.11c1.661.012 3.323.022 4.984.03l2.559.063c7.111.004 12.246-1.924 17.652-6.566 5.434-6.244 7.808-10.844 7.539-19.262-.815-6.824-3.652-11.985-9.07-16.258-4.247-2.742-7.905-4.496-13.034-4.48h-2.522l-2.636.015-2.433.003c-2.997.006-5.995.02-8.992.033zm269.323-25.145 3.452-.02 3.772-.003 3.87-.01c2.718-.006 5.435-.008 8.152-.007 3.446 0 6.891-.014 10.337-.031 3.318-.014 6.636-.013 9.953-.014l3.698-.022c14.535.038 29.77 1.666 41.443 11.252l4 4 2 2c9.043 10.464 11.556 23.355 10.852 36.844C926.646 97.956 922.046 106.43 917 114l-2 2-2 2c-7.952 6.443-19.524 12.647-30 12 3.913 7.526 7.816 12.722 16.07 15.457 4.738 1.333 9.267 1.84 14.18 2.106L921 148v24c-20.078.697-35.86-1.532-51.25-15.688-6.807-7.227-11.279-15.503-12.75-25.312h-12c-.096 4.404-.528 23.197-.684 29.59l-.05 2.503c-.152 5.793-.152 5.793-1.266 6.907-7.663.21-15.335.051-23 0-.023-17.454-.041-34.908-.052-52.362-.005-8.104-.012-16.208-.023-24.312-.01-7.06-.017-14.12-.02-21.181 0-3.741-.003-7.482-.01-11.223-.009-4.17-.009-8.338-.009-12.508l-.01-3.786.003-3.42-.003-2.992c.238-4.281 2.73-3.347 6.447-3.361zM844 60v46l20 .25 6.266.11c1.661.012 3.323.022 4.984.03l2.559.063c7.314.004 12.41-2.051 17.941-6.828 5.246-6.12 7.6-10.4 7.465-18.477C902.587 74.874 899.78 69.15 895 65c-9.046-7.09-20.301-5.553-31.125-5.313Zm159.938-25.25 3.365-.063 3.224-.015 2.961-.028c2.512.356 2.512.356 4.214 1.585 1.516 2.069 2.517 4.088 3.54 6.443l1.273 2.907 1.36 3.171 1.438 3.308a1674.711 1674.711 0 0 1 8.054 18.965l.855 2.044c1.373 3.283 2.74 6.569 4.098 9.858 2.589 6.248 5.272 12.423 8.164 18.536 3.887 8.215 7.358 16.585 10.818 24.987 3.502 8.487 7.17 16.859 11.102 25.156 6.861 14.6 6.861 14.6 5.596 18.396h-25c-4.378-8.307-8.033-16.74-11.488-25.465a277.098 277.098 0 0 0-6.883-15.746c-3.982-8.421-7.538-17.002-11.082-25.614-2.953-7.163-5.966-14.238-9.51-21.135-1.252-2.464-2.335-4.97-3.35-7.54l-.988-2.469C1005 70 1005 70 1005 68h-2l-1.105 3.59c-2.286 6.843-5.286 13.385-8.207 19.972a7975.09 7975.09 0 0 0-1.856 4.21 7773.61 7773.61 0 0 1-2.889 6.553 3535.331 3535.331 0 0 0-6.767 15.433l-.94 2.154-3.599 8.257c-3.354 7.703-6.776 15.368-10.34 22.977-1.575 3.466-2.985 6.98-4.34 10.538-1.172 2.837-2.584 5.57-3.957 8.316h-25c-1.17-4.679-.62-5.58 1.36-9.82l1.616-3.523.876-1.867c1.528-3.258 3.019-6.533 4.515-9.806l.928-2.02c3-6.555 5.805-13.187 8.58-19.839 3.288-7.855 6.705-15.593 10.375-23.277 2.73-5.865 5.08-11.9 7.467-17.911 2.155-5.377 4.542-10.544 7.176-15.702 1.36-2.745 2.447-5.54 3.482-8.422a224.063 224.063 0 0 1 6.313-15.063l.901-1.989c3.556-7.606 8.675-5.975 16.348-6.011Zm93.156.117 3.12-.004 3.286.012 3.285-.012 3.121.004 2.885.004C1115 35 1115 35 1116 36l-.158 3.947c-.562 16.231 5.241 25.489 14.658 38.24a1362.45 1362.45 0 0 1 3.981 5.63c2.61 3.704 5.238 7.392 7.884 11.07 4.476 6.254 8.706 12.657 12.868 19.124 1.68 2.61 3.376 5.21 5.068 7.813L1163 126c3.755-4.497 6.981-9.298 10.242-14.156l1.833-2.72a9931.96 9931.96 0 0 0 5.8-8.624l5.669-8.414c1.259-1.873 2.514-3.747 3.767-5.625 3.176-4.758 6.393-9.476 9.71-14.138l1.955-2.797a286.859 286.859 0 0 1 3.7-5.17c6.172-8.915 5.79-17.888 5.324-28.356 1.685-1.685 3.788-1.13 6.094-1.133l3.12-.004 3.286.012 3.285-.012 3.121.004 2.885.004C1235 35 1235 35 1236 36c.098 1.719.126 3.441.127 5.163l.01 3.39-.01 3.754.01 3.926V74.09c0 6.252-.001 12.503-.01 18.754-.01 7.238 0 14.475 0 21.712 0 6.203.01 12.406 0 18.61v11.128c0 4.133 0 8.266-.01 12.4l.01 3.752-.01 3.391v2.966C1236 169 1236 169 1235 170c-1.696.1-3.395.13-5.094.133l-3.12.004-3.286-.012-3.285.012-3.121-.004-2.885-.003C1212 170 1212 170 1211 169a131.665 131.665 0 0 1-.205-6.172l-.03-1.951c-.032-2.138-.056-4.275-.081-6.412l-.063-4.435c-.055-3.898-.105-7.796-.153-11.694-.05-3.975-.106-7.95-.161-11.924-.108-7.804-.21-15.608-.307-23.412l-1.054 1.565a53152.725 53152.725 0 0 1-15.028 22.309c-1.963 2.915-3.926 5.83-5.89 8.743l-1.813 2.694a1030.34 1030.34 0 0 1-3.483 5.131 283.198 283.198 0 0 0-3.55 5.38l-1.809 2.742-1.6 2.48c-2.16 2.383-3.635 2.799-6.77 3.32a95.107 95.107 0 0 1-5.44-.052l-2.737.143c-4.025-.044-6.742-.457-9.758-3.234-1.74-2.339-3.308-4.736-4.826-7.225-2.007-3.225-4.158-6.351-6.285-9.497-3.18-4.711-6.314-9.451-9.457-14.187A17275.968 17275.968 0 0 1 1117 103l-.031 2.499c-.098 7.755-.2 15.51-.308 23.265-.055 3.988-.109 7.975-.158 11.962-.048 3.845-.1 7.69-.156 11.535-.02 1.47-.039 2.94-.056 4.41-.024 2.053-.054 4.105-.086 6.157l-.047 3.546C1116 169 1116 169 1115 170c-1.696.1-3.395.13-5.094.133l-3.12.004-3.286-.012-3.285.012-3.121-.004-2.885-.003C1092 170 1092 170 1091 169a90.936 90.936 0 0 1-.127-5.163l-.009-3.39.006-3.754-.005-3.926a4552.58 4552.58 0 0 1 0-10.692c.003-3.722 0-7.444 0-11.165-.003-6.252 0-12.503.004-18.754.005-7.238.004-14.475-.002-21.712-.005-6.203-.005-12.406-.003-18.61.002-3.709.002-7.418-.002-11.128-.003-4.133.001-8.266.007-12.4l-.006-3.752.01-3.391v-2.966c.24-4.19 2.572-3.325 6.22-3.33zM412.906 90.855c115.165-.474-23.613.568 70.537-.115 5.329.032 5.329.032 7.557 2.26.243 2.23.243 2.23.23 4.973l-.006 2.974-.037 3.116-.002 3.126c-.045 7.67-.045 7.67-1.185 8.811-2.637.106-5.247.147-7.885.145-116.888.476 20.767-.57-75.02.115-5.404-.032-1.826-.087-4.054-2.315-.227-2.246-.268-2.192-.236-4.953l.02-2.988.05-3.129.027-3.152c.024-2.575.057-5.149.098-7.723 3.13-1.565 6.47-1.147 9.906-1.145zM403 146h99v23c-1.908 1.908-4.73 1.127-7.27 1.136l-2.732-.006-2.862.005c-3.14.004-6.278 0-9.417-.002l-6.513.003c-4.557 0-9.113-.001-13.67-.005-5.854-.006-11.71-.002-17.564.004-4.485.004-8.97.002-13.454 0-2.16-.001-4.32 0-6.479.001-3.012.003-6.025 0-9.037-.007l-2.733.006c-6.155-.02-6.155-.02-7.269-1.135Z" fill="#fd947d"/>
</svg>
